<svg width="198" height="74" viewBox="0 0 198 74" fill="none" xmlns="http://www.w3.org/2000/svg">
<g clip-path="url(#clip0_275_5091)">
<path d="M35.0578 1.34266C41.5811 -0.406588 48.6081 -0.512896 55.1024 1.40065C58.8168 2.53138 62.2698 4.44975 65.2239 6.95282C69.35 3.59929 74.3866 0.767631 79.8687 0.946422C82.2417 0.878771 84.605 1.71474 86.4501 3.19822C88.1936 4.58505 89.4527 6.4986 90.3341 8.52811C91.8644 12.2344 91.8548 16.3417 91.4964 20.2703C91.477 20.3718 91.4383 20.5747 91.4237 20.6762C91.1283 22.0969 90.8571 23.5175 90.6101 24.943L90.5666 25.1122C90.3922 25.4842 90.1598 25.8756 89.6852 25.7065C89.4914 25.175 89.7191 24.6386 89.8353 24.1216C90.1985 22.8072 90.4503 21.4639 90.4988 20.1012C90.8281 18.0572 90.7409 15.9697 90.6053 13.916C90.3389 11.3549 89.5931 8.80354 88.1693 6.63873C86.5712 4.06318 83.8108 2.1738 80.7404 1.99017C75.2099 1.5746 70.0183 4.30962 65.839 7.69214C66.1537 8.04973 66.4734 8.41214 66.7833 8.77455C69.1079 11.4467 70.798 14.6843 71.5099 18.1635C71.9216 20.28 72.033 22.4545 71.7763 24.5999C71.6891 24.9624 71.6504 25.3393 71.6552 25.7162C70.614 30.6837 67.6357 35.4192 63.0882 37.8594C59.4319 39.7923 54.8312 39.2946 51.4702 36.9751C51.0392 36.6466 50.1191 35.5835 51.0683 35.3709C52.5308 36.289 54.0079 37.3424 55.7852 37.526C58.473 37.9368 61.1511 36.6562 62.9139 34.675C66.3136 30.9059 67.8342 25.7693 67.9311 20.7729C68.0715 17.0907 67.2531 13.341 65.3595 10.1614C65.098 9.73132 64.8171 9.31092 64.5411 8.89536C61.0348 12.476 58.2211 16.6655 55.8288 21.0531C52.9667 26.3057 50.6082 31.8144 48.4967 37.4052C46.4821 42.8704 44.4142 48.3308 41.7555 53.5254C40.661 55.6274 39.4599 57.681 37.9974 59.5511C34.8205 63.6198 30.7331 66.9105 26.3116 69.544C22.9458 71.5881 19.2701 73.1247 15.3958 73.8882C13.6863 74.0428 11.9622 74.0476 10.2479 73.9172C7.6763 73.376 5.18223 72.3032 3.28384 70.4428C1.55494 68.7177 0.310326 66.4466 0.0923974 63.9919C-0.217545 61.5564 0.218312 58.8649 1.91815 56.9949C2.68332 56.1202 3.96184 55.5742 5.09022 56.0236C5.86023 56.2507 6.27188 57.0142 6.54792 57.71C6.90629 59.6767 6.7949 62.0832 5.12412 63.4507C4.46065 64.0595 3.51145 63.9097 2.70754 63.7551C2.36854 63.3927 2.0586 62.9868 1.85035 62.5325C1.69538 61.5758 1.72444 60.5997 1.56947 59.6429C0.518568 62.1943 0.983482 65.2531 2.30558 67.6402C3.72938 69.9838 6.12659 71.6654 8.75142 72.4095C13.2117 73.5837 18.0787 72.6221 21.9821 70.2495C25.8176 67.9494 28.7815 64.4992 31.3675 60.9138C33.3337 58.2174 34.9125 55.2746 36.4477 52.3173C39.1209 47.2435 41.6925 42.1263 44.264 36.9993C46.9664 31.5873 50.0367 26.3637 53.3928 21.3286C56.5213 16.7718 59.6449 12.1088 63.7372 8.34449C63.8243 7.79845 63.2674 7.48436 62.9575 7.12195C59.3834 3.64278 54.4728 1.83554 49.5718 1.3185C43.281 0.56468 36.7673 1.53595 31.0334 4.25646C26.5683 6.35846 22.6262 9.44139 19.2217 12.9882C15.6331 16.8056 12.5046 21.0531 9.94276 25.6195C6.95956 31.0026 4.91104 37.0766 5.14833 43.286C5.22098 45.4073 5.65683 47.5383 6.57698 49.4615C7.55523 51.5152 9.17759 53.3079 11.2649 54.2744C14.1221 55.6225 17.4879 55.5017 20.4275 54.487C23.3284 53.5205 25.8806 51.7568 28.1761 49.7708C31.629 46.654 34.6655 43.0685 37.1208 39.1206C39.7457 34.8635 41.5908 29.9637 41.5133 24.9092C41.523 23.2421 41.2905 21.5267 40.4963 20.0384C39.7747 18.6419 38.3509 17.7237 36.8109 17.5111C33.7357 17.0086 30.7137 18.4196 28.3359 20.2606C25.2898 22.6767 22.786 25.7017 20.597 28.8909C17.8947 32.8968 15.7493 37.497 15.6089 42.3969C15.5314 43.6001 15.8074 44.8178 16.4273 45.8567C17.0182 47.0068 18.2482 47.4755 19.459 47.6349C19.488 47.8137 19.551 48.1665 19.5849 48.3453L18.9505 48.4612C18.0933 48.3646 17.2506 48.1133 16.5726 47.5625C14.5822 45.5039 13.972 42.4983 14.1076 39.7247C14.282 34.4141 16.7566 29.4321 20.0982 25.3924C23.217 21.6233 27.0719 18.1152 31.9099 16.825C34.128 16.3176 36.593 16.1098 38.7238 17.0666C40.5302 17.8832 41.6102 19.7243 42.0363 21.5895C42.4625 23.6093 42.3608 25.6872 42.2204 27.736C41.1646 35.8154 36.3993 42.8414 30.8542 48.5965C27.624 51.8148 23.8321 54.7576 19.3185 55.8496C17.3668 56.328 15.328 56.3522 13.3473 56.0526C11.3375 55.5984 9.45847 54.6174 7.99593 53.1629C4.47518 49.6741 3.35164 44.5133 3.40491 39.7198C3.39038 31.6501 6.60119 23.8075 11.6668 17.5933C17.7204 10.1614 25.7111 3.96653 35.0529 1.36682L35.0578 1.34266Z" fill="#691112"/>
<path d="M142.328 27.5293C142.764 26.1279 144.377 25.176 145.8 25.5046C146.493 25.6254 146.624 26.3695 146.493 26.9542C145.737 27.9593 144.551 28.7083 143.248 28.4957C143.113 28.4425 142.837 28.3411 142.701 28.2927C142.609 28.1043 142.42 27.7225 142.328 27.5293Z" fill="#691112"/>
<path d="M76.9339 31.7951C77.9267 31.1041 79.0066 30.0942 80.3287 30.4227C81.1762 30.5242 81.7767 31.2152 82.0237 31.9932C82.1981 33.8053 81.0309 35.3419 80.0091 36.7094C80.9583 35.8879 82.169 35.3274 82.8954 34.274C83.9802 32.6794 85.4137 31.1959 87.2685 30.5291C87.9368 30.2585 88.6826 30.3551 89.2396 30.8142C89.0991 31.1186 88.9442 31.423 88.7843 31.7129C87.501 32.8002 86.0046 33.5782 84.4791 34.274C83.9076 34.5639 83.2732 34.7669 82.7937 35.2018C82.3676 36.0426 82.232 37.1105 82.7356 37.9513C82.818 38.0479 82.9875 38.2316 83.0698 38.3282C84.4548 38.9419 85.9464 38.2267 87.1232 37.4729C88.4018 36.7046 89.1815 35.3806 90.3776 34.5059C92.3923 32.979 94.7507 32.0077 97.1237 31.1862C98.5379 30.7368 100.005 30.3213 101.507 30.3599C102.553 30.4083 103.797 30.9929 103.918 32.1575C103.497 33.728 101.889 34.3851 100.543 34.9843C98.2957 35.6077 96.0244 36.1344 93.7241 36.5258C93.3657 36.5548 93.0073 36.6079 92.6538 36.6853C92.5037 36.6949 92.2131 36.7142 92.0678 36.7287C91.1186 37.7338 90.1985 38.9274 90.0435 40.3432C89.9563 40.9472 90.2469 41.5029 90.6585 41.9282C92.6635 42.7738 94.9396 42.1601 96.7896 41.2033C101.172 38.9757 104.252 35.0182 107.914 31.8627C108.626 31.2829 109.4 30.7513 110.277 30.4469C111.522 30.07 112.94 31.0171 113.125 32.2928C113.333 33.5298 112.388 34.5784 111.894 35.6028C113.769 33.7038 115.648 31.5921 118.176 30.558C119.856 29.8332 121.851 31.0558 122.113 32.834C121.987 33.8681 121.474 34.7862 120.922 35.6608C121.541 35.0182 122.171 34.3803 122.834 33.7811C124.394 32.4088 126.045 30.9881 128.089 30.4276C129.677 30.0458 131.338 31.1669 131.726 32.718C131.813 35.1003 129.89 36.7819 128.433 38.4103C127.59 39.4299 126.399 40.406 126.326 41.8267C126.578 42.0441 126.844 42.2423 127.12 42.4355C127.982 42.3824 128.84 42.1504 129.556 41.6624C131.891 40.1838 133.779 38.1397 135.702 36.1875C137.45 34.5059 138.782 32.4668 140.322 30.6064C141.547 30.7368 142.782 30.6789 144.012 30.6209C143.654 31.0606 143.295 31.4955 142.937 31.9304C141.039 34.2692 139.135 36.5983 137.252 38.9467C136.704 39.7102 136.031 40.5027 136.012 41.4884C135.934 41.9427 136.399 42.1601 136.714 42.3631C137.571 42.4066 138.448 42.2471 139.179 41.7929C141.567 40.3964 143.538 38.4152 145.47 36.463C147.281 34.6751 148.749 32.5876 150.332 30.6112C151.533 30.7078 152.739 30.6837 153.945 30.6112C153.572 31.0558 153.204 31.5003 152.841 31.9497C150.938 34.3078 149.034 36.6611 147.126 39.0144C146.511 39.8117 145.853 40.7443 145.993 41.8122C146.206 42.0296 146.434 42.2374 146.671 42.4355C148.758 42.3776 150.318 40.8119 151.775 39.5072C154.56 36.7867 156.855 33.6265 159.282 30.6015C160.483 30.732 161.693 30.6933 162.899 30.5967C162.536 31.0558 162.168 31.51 161.8 31.9642C159.979 34.2208 158.076 36.4195 156.366 38.7583C155.814 39.5991 155.127 40.4302 154.981 41.4546C154.88 41.9668 155.34 42.1939 155.708 42.4162C157.175 42.4307 158.425 41.5754 159.543 40.7201C162.967 38.0383 165.626 34.5301 168.977 31.7661C169.655 31.2297 170.382 30.7223 171.215 30.4469C172.571 30.0507 174.072 31.2152 174.086 32.6117C174.125 33.7328 173.234 34.6364 172.842 35.6028C174.677 33.7086 176.537 31.6453 179.016 30.5919C180.469 29.9395 182.421 30.7417 182.852 32.3073C183.254 33.5202 182.363 34.6799 181.825 35.6753C183.811 33.7086 185.859 31.5873 188.528 30.5677C190.189 29.8815 192.262 30.9543 192.634 32.7132C192.736 35.1293 190.775 36.7964 189.327 38.4538C188.581 39.3816 187.501 40.2224 187.327 41.4739C187.201 41.9958 187.704 42.1988 188.068 42.4114C189.53 42.421 190.76 41.5368 191.874 40.6863C193.511 39.3816 195.003 37.9078 196.431 36.3808C196.886 35.9314 197.308 35.3371 198.005 35.2839C196.349 37.1636 194.562 38.9419 192.649 40.5607C191.274 41.6334 189.753 42.7835 187.937 42.8463C187.264 42.711 186.624 42.4597 186.029 42.1263C185.307 41.4256 184.896 40.3867 185.167 39.3961C185.646 37.5357 187.249 36.318 188.45 34.9263C189.235 33.9937 190.155 33.1239 190.654 31.9932C190.702 31.7613 190.755 31.5293 190.789 31.3022C189.966 30.4276 188.717 30.8625 187.792 31.3022C186.15 32.1285 184.779 33.38 183.462 34.6364C180.915 37.0815 178.658 39.8068 176.474 42.5708C175.859 42.5467 175.244 42.5225 174.629 42.5225C174.014 42.5225 173.394 42.5515 172.779 42.5708C174.953 39.947 177.229 37.3956 179.283 34.6702C179.883 33.8053 180.595 32.9693 180.881 31.9352C180.91 31.8241 180.973 31.6115 181.007 31.5003C180.668 30.5242 179.472 30.732 178.76 31.1234C177.176 31.9449 175.776 33.1239 174.59 34.448L174.503 34.5929C171.757 36.8399 169.631 39.7537 167.515 42.5757C166.851 42.5515 166.192 42.5274 165.529 42.5274C164.928 42.5274 164.338 42.5564 163.737 42.5757C165.607 40.3915 167.476 38.2074 169.302 35.9846C170.236 34.7814 171.244 33.612 171.917 32.2396C172.004 32.0319 172.096 31.8289 172.178 31.6163C172.44 31.1186 171.776 30.558 171.307 30.8335C170.139 31.2491 169.2 32.0898 168.299 32.9017C166.202 34.762 164.483 36.9945 162.362 38.8211C160.405 40.5268 158.395 42.5612 155.679 42.8656C154.976 42.7303 154.308 42.4694 153.698 42.1021C152.516 41.097 152.502 39.3333 153.543 38.1784C151.465 39.9615 149.586 42.5998 146.642 42.8559C145.954 42.7255 145.296 42.479 144.7 42.1118C144.298 41.6817 143.983 41.184 143.751 40.6428C143.765 40.522 143.799 40.2804 143.814 40.1596C143.867 39.8213 143.94 39.4879 144.022 39.1593C143.935 38.9902 143.848 38.8259 143.765 38.6616C141.814 40.5558 139.591 42.6337 136.743 42.8559C136.036 42.7158 135.353 42.4549 134.724 42.107C134.322 41.7011 134.002 41.2227 133.799 40.696C133.799 40.377 133.818 40.0629 133.852 39.7489C134.133 39.0482 134.462 38.3717 134.801 37.7C132.544 39.8358 130.229 42.537 126.931 42.8704C126.297 42.682 125.677 42.4404 125.101 42.1166C124.011 41.1454 123.939 39.4638 124.689 38.275C126.108 35.9749 128.559 34.4238 129.721 31.9545C129.765 31.8337 129.847 31.6066 129.886 31.4907L129.798 31.1041C128.752 30.4952 127.532 30.935 126.554 31.4665C125.115 32.2638 123.88 33.38 122.684 34.4914C120.074 36.98 117.783 39.7779 115.527 42.5805C114.892 42.5467 114.258 42.5177 113.623 42.5177C113.037 42.5177 112.451 42.5467 111.865 42.566C113.953 40.0291 116.142 37.5744 118.142 34.9602C118.854 33.9937 119.609 33.0273 120.006 31.8821L120.147 31.5245C119.837 31.0606 119.352 30.616 118.747 30.7997C116.786 31.3457 115.309 32.8582 113.836 34.1822C111.12 36.7094 108.756 39.5846 106.562 42.5708C105.928 42.5419 105.294 42.5177 104.659 42.5177C104.025 42.5177 103.439 42.5467 102.824 42.566C104.819 40.1741 106.882 37.845 108.824 35.4144C109.618 34.3948 110.432 33.3752 111.003 32.2155C111.081 32.0512 111.231 31.7226 111.308 31.5583C111.294 30.9253 110.824 30.558 110.224 30.8673C108.156 31.8434 106.616 33.6217 104.998 35.1873C102.286 37.8546 99.4338 40.5558 95.8888 42.0731C94.3924 42.7351 92.7361 42.8849 91.1186 42.7496L91.1041 42.74C90.4019 42.3679 89.6609 42.049 89.0023 41.5996C88.3436 40.9811 87.8787 40.1741 87.6947 39.285L87.7286 38.9612C87.777 38.3813 87.9029 37.816 88.0482 37.2554C86.7261 38.3524 85.0602 39.0434 83.3216 38.9467C83.1715 38.8501 82.8664 38.6519 82.7114 38.5505C81.9317 38.1204 81.8252 37.1298 81.9123 36.3373C81.985 36.1199 82.1206 35.685 82.1884 35.4675C79.365 37.2603 77.3988 40.005 75.3551 42.5757C74.7304 42.5515 74.1105 42.5274 73.4906 42.5274C72.9095 42.5274 72.338 42.5564 71.7617 42.5708C74.3333 39.2511 77.2487 36.1875 79.549 32.6697C79.6217 32.5441 79.6798 32.4184 79.7282 32.2831C79.9268 31.9159 80.0527 31.5197 80.1108 31.1089C79.8977 30.9978 79.4764 30.7755 79.2633 30.6644C77.1567 31.6356 75.5537 33.3607 73.9846 35.023C73.6456 35.3467 73.3308 35.8251 72.7836 35.7623C74.0233 34.303 75.4568 33.0128 76.9387 31.8048L76.9339 31.7951ZM96.7266 32.6504C95.0607 33.6217 93.6805 35.0182 92.3099 36.3615C93.1962 36.202 94.1018 36.0522 94.9493 35.7478C96.5087 35.3612 98.0294 34.8055 99.4483 34.0614C100.49 33.4815 101.681 32.8582 102.136 31.6839C102.441 31.1331 101.734 30.6547 101.245 30.7368C99.5694 30.8093 98.0487 31.6839 96.7266 32.6455V32.6504Z" fill="#691112"/>
<path d="M164.237 51.043C166.232 50.0959 166.973 47.873 167.559 45.916C167.724 46.8631 167.685 47.8199 167.675 48.7767C167.651 49.5208 167.665 50.265 167.665 51.014H168.411C169.985 51.0333 171.559 50.9753 173.128 51.043C173.056 51.3909 172.973 51.734 172.891 52.0819C171.317 52.0915 169.748 52.0819 168.179 52.1157C168.053 52.106 167.791 52.0867 167.665 52.077C167.665 56.4405 167.665 60.804 167.665 65.1674C167.632 66.0372 167.82 66.936 168.465 67.569C169.089 67.801 169.806 67.8541 170.445 67.6415C171.269 67.2453 171.569 66.2595 172.382 65.8391C172.382 67.4385 170.765 68.3615 169.462 68.9027C168.232 68.9897 166.934 68.9365 165.893 68.1875C165.22 67.4579 164.895 66.4721 164.9 65.4912C164.881 61.4563 164.9 57.4166 164.895 53.3769C164.895 53.1498 164.895 52.6907 164.895 52.4588V52.0819C163.627 52.0722 162.358 52.1447 161.094 52.0336C161.965 51.2991 163.292 51.6905 164.242 51.043H164.237Z" fill="#691112"/>
<path d="M91.8756 53.7781C93.6675 51.6761 96.3407 50.2023 99.1689 50.4488C101.382 50.4101 104.002 51.4152 104.554 53.7878C106.283 51.8936 108.637 50.299 111.315 50.4439C113.688 50.299 116.158 51.594 117.073 53.8458C117.388 58.2092 117.088 62.6017 117.223 66.9748C117.184 67.4242 117.47 67.7721 117.872 67.9461C118.434 67.9461 119.005 67.9268 119.572 67.9268C119.572 68.0911 119.572 68.4245 119.572 68.5888C118.996 68.6081 118.419 68.6178 117.848 68.6226C117.02 68.5936 116.187 68.6033 115.359 68.6081C114.274 68.6081 113.189 68.6081 112.104 68.5743C112.095 68.4196 112.08 68.1104 112.075 67.9606C112.831 67.835 113.765 68.1732 114.366 67.574C114.487 64.119 114.376 60.6495 114.414 57.1897C114.385 56.0831 114.511 54.962 114.269 53.8748C113.809 52.889 112.976 52.0386 111.886 51.7825C108.942 51.1301 105.881 53.1113 104.637 55.7013C104.515 59.6927 104.622 63.6938 104.593 67.6852C104.772 67.7335 105.126 67.8253 105.305 67.8688C105.784 68.0137 107.295 67.6417 106.777 68.5646C106.269 68.6226 105.76 68.6033 105.256 68.6081C104.399 68.5984 103.552 68.5936 102.699 68.6178C101.678 68.5791 100.646 68.6709 99.629 68.5453L99.2028 68.0814C99.9971 67.7915 100.956 68.1297 101.663 67.632C101.852 64.5442 101.692 61.442 101.745 58.3494C101.687 56.8079 101.905 55.2423 101.566 53.7298C100.995 52.4541 99.6629 51.6278 98.2633 51.6568C95.653 51.507 93.3478 53.2611 92.0161 55.3728C91.8127 56.663 91.9289 57.9676 91.9047 59.2627C91.9289 62.0267 91.8611 64.7955 91.9386 67.5595C92.0596 67.632 92.2969 67.777 92.418 67.8446L92.573 67.9316C93.1251 67.9364 93.682 67.9219 94.2341 67.9219C94.2583 68.9319 93.1638 68.5211 92.5149 68.6033C91.6722 68.5936 90.8296 68.5888 89.9869 68.6129C88.9215 68.6033 87.8609 68.5936 86.7955 68.5936C86.7906 68.4293 86.7761 68.0911 86.7664 67.9268C87.4589 67.9074 88.1563 67.9026 88.8488 67.8978C88.9844 67.3904 89.1249 66.8782 89.1103 66.3466C89.091 62.0605 89.12 57.7744 89.0958 53.4882C89.028 53.1403 88.9505 52.802 88.8488 52.4686C88.2241 52.1835 87.5074 52.3382 86.8439 52.2898C86.8148 52.14 86.7616 51.8356 86.7422 51.681C88.442 51.1978 90.2242 51.048 91.9047 50.4971C91.8756 51.5892 91.8756 52.6812 91.8708 53.7685L91.8756 53.7781Z" fill="#691112"/>
<path d="M124.264 53.5114C126.796 50.4043 131.61 49.5442 135.058 51.6027C137.533 53.0282 139.315 55.8212 139.02 58.7302C134.298 58.793 129.576 58.7833 124.854 58.7399C124.816 60.8274 124.772 63.1033 126.08 64.8671C128.516 68.1626 133.959 68.3076 136.753 65.3938C137.673 64.5723 138.143 63.4222 138.69 62.3447C138.816 62.306 139.073 62.2239 139.199 62.19C139.16 62.7216 139.126 63.2579 139.02 63.7847C137.848 66.2636 135.504 68.2931 132.758 68.7763C129.741 69.3513 126.438 68.467 124.322 66.1911C121.067 62.7989 121.062 56.9471 124.259 53.5114H124.264ZM128.332 51.6366C125.9 52.7238 124.67 55.4636 124.84 58.0247C125.024 58.0247 125.392 58.0199 125.576 58.0199C129.005 57.9909 132.443 58.073 135.867 57.9812C136.356 56.6379 135.954 55.0046 135.31 53.7434C134.032 51.2741 130.763 50.4333 128.332 51.6366Z" fill="#691112"/>
<path d="M144.776 52.0664C146.984 50.6457 149.75 50.1867 152.316 50.6747C154.089 51.0081 155.779 52.1485 156.423 53.8784C156.854 58.411 156.384 62.9968 156.67 67.5438C156.844 67.6598 157.193 67.8918 157.367 68.0077C158.099 67.6115 158.675 67.0026 159.271 66.4373C159.474 67.5873 158.195 68.2155 157.387 68.7519C156.515 69.0273 155.58 68.9548 154.767 68.5393C154.617 68.404 154.486 68.259 154.37 68.1092C154.127 67.6791 153.929 67.2201 153.73 66.7659C150.834 69.1481 146.214 69.873 143.124 67.4714C141.962 66.4518 141.618 64.7605 142.127 63.3302C142.713 61.8805 144.132 61.0156 145.497 60.397C148.132 59.2518 151.038 59.0634 153.798 58.3772C153.721 56.5071 153.977 54.5936 153.672 52.7574C153.44 52.3418 153.115 51.9746 152.694 51.7523C151.072 50.9743 149.178 51.0419 147.478 51.5107C146.626 51.7571 145.701 52.2258 145.483 53.1681C145.585 53.9219 146.025 54.7724 145.493 55.4682C145.076 56.1641 144.243 56.3718 143.488 56.3718C142.785 55.9128 142.466 54.9995 142.756 54.207C143.1 53.2503 143.943 52.5882 144.771 52.0615L144.776 52.0664ZM145.652 61.7404L145.541 61.7694C144.679 63.3205 144.674 65.321 145.614 66.8383C147.28 68.3605 149.89 68.114 151.692 66.9495C152.558 66.3841 153.575 65.698 153.774 64.6107C153.871 63.277 153.793 61.9385 153.798 60.6048C153.818 60.4019 153.847 59.9911 153.861 59.7834C152.825 59.2228 151.604 59.4499 150.486 59.5176C148.713 59.735 146.752 60.2086 145.652 61.7452V61.7404Z" fill="#691112"/>
<path d="M177.845 51.903C179.903 50.2214 182.838 50.2166 185.283 50.9414C186 51.0816 186.823 51.7242 187.434 50.9946C187.458 52.4974 187.337 54.0002 187.409 55.503C186.731 55.1454 186.77 54.295 186.431 53.7006C185.976 52.8985 185.346 52.1688 184.509 51.7532C182.988 50.9898 181.109 50.84 179.545 51.5406C178.629 51.9465 178.048 52.8163 177.762 53.7489C177.666 54.6719 177.956 55.59 178.571 56.2858C180.76 58.0496 183.748 58.1945 186.189 59.4751C187.129 60.0114 187.836 60.8861 188.252 61.8718C188.673 63.6066 188.252 65.4235 187.221 66.8635C185.492 68.6949 182.886 69.1588 180.465 68.98C179.128 68.7818 177.825 68.4194 176.566 67.941L176.368 67.8734C176.247 68.0329 176.004 68.3518 175.879 68.5112C175.874 66.704 175.845 64.8919 175.869 63.0847C176.494 63.1282 176.513 63.7999 176.707 64.2493C177.239 65.9888 178.566 67.5593 180.378 68.0377C181.952 68.4581 183.806 68.5016 185.172 67.4868C186.388 66.6025 186.852 64.8726 186.281 63.4906C185.564 62.0699 183.99 61.5287 182.581 61.0649C180.76 60.3594 178.673 60.0888 177.191 58.7116C175.448 56.8077 175.762 53.4397 177.845 51.8982V51.903Z" fill="#691112"/>
</g>
<defs>
<clipPath id="clip0_275_5091">
<rect width="198" height="74" fill="white"/>
</clipPath>
</defs>
</svg>
